<svg width="26" height="26" viewBox="0 0 26 26" fill="none" xmlns="http://www.w3.org/2000/svg">
<path d="M17.3553 20.8209L17.3552 20.8209L17.3596 20.8319C17.6288 21.4957 18.2762 21.95 19.006 21.95C20.2409 21.95 21.0966 20.699 20.6409 19.55C20.6408 19.5498 20.6408 19.5497 20.6407 19.5496L15.1163 5.49805L15.1158 5.49682C14.7682 4.61935 13.9354 4.05 13 4.05C12.0633 4.05 11.2351 4.61988 10.8742 5.48931L10.8741 5.48928L10.8707 5.49805L5.34625 19.5496C5.34618 19.5498 5.3461 19.55 5.34602 19.5502C4.89052 20.6992 5.74614 21.95 6.981 21.95C7.72054 21.95 8.37698 21.4973 8.63262 20.8054C8.6328 20.8049 8.63299 20.8044 8.63317 20.8039L9.66733 18.05H16.3075L17.3553 20.8209ZM11.0305 14.45L13 9.198L14.9695 14.45H11.0305ZM2.6 0.5H23.4C24.5539 0.5 25.5 1.44614 25.5 2.6V23.4C25.5 24.5539 24.5539 25.5 23.4 25.5H2.6C1.44614 25.5 0.5 24.5539 0.5 23.4V2.6C0.5 1.44614 1.44614 0.5 2.6 0.5Z" fill="#9D9D9D" stroke="#9D9D9D"/>
</svg>
