<svg width="17" height="21" viewBox="0 0 17 21" fill="none" xmlns="http://www.w3.org/2000/svg">
<path d="M8.45938 3.58182V0.545765C8.45938 0.0560792 7.88324 -0.183323 7.5525 0.164898L3.50884 4.28914C3.29546 4.50678 3.29546 4.84412 3.50884 5.06175L7.5525 9.18599C7.88324 9.52333 8.45938 9.28393 8.45938 8.80513V5.7582C12.439 5.7582 15.5865 9.47981 14.7116 13.6911C14.2101 16.1613 12.247 18.1527 9.83572 18.6641C6.02679 19.4803 2.63396 16.8142 2.12184 13.2123C2.05782 12.69 1.60971 12.2873 1.07625 12.2873C0.436094 12.2873 -0.0760303 12.8641 0.0093238 13.517C0.670818 18.2941 5.13057 21.8308 10.1771 20.8296C13.5059 20.1658 16.1839 17.4345 16.8348 14.0393C17.891 8.45691 13.7407 3.58182 8.45938 3.58182ZM7.28577 15.5519H6.37888V12.0044L5.30128 12.3417V11.5909L7.18974 10.9053H7.28577V15.5519ZM11.8522 13.6367C11.8522 13.9849 11.8202 14.2896 11.7455 14.529C11.6708 14.7684 11.5641 14.986 11.4361 15.1493C11.3081 15.3125 11.1374 15.4322 10.956 15.5084C10.7746 15.5846 10.5612 15.6172 10.3265 15.6172C10.0918 15.6172 9.88907 15.5846 9.69702 15.5084C9.50497 15.4322 9.34493 15.3125 9.20623 15.1493C9.06753 14.986 8.96084 14.7793 8.88616 14.529C8.81147 14.2787 8.76879 13.9849 8.76879 13.6367V12.8314C8.76879 12.4832 8.8008 12.1785 8.87549 11.9391C8.95017 11.6997 9.05686 11.4821 9.18489 11.3188C9.31293 11.1556 9.48363 11.0359 9.66501 10.9597C9.84639 10.8836 10.0598 10.8509 10.2945 10.8509C10.5292 10.8509 10.7319 10.8836 10.924 10.9597C11.116 11.0359 11.2761 11.1556 11.4148 11.3188C11.5535 11.4821 11.6602 11.6888 11.7348 11.9391C11.8095 12.1894 11.8522 12.4832 11.8522 12.8314V13.6367ZM10.9453 12.7008C10.9453 12.4941 10.9347 12.32 10.9026 12.1785C10.8706 12.0371 10.828 11.9282 10.7746 11.8412C10.7213 11.7541 10.6573 11.6888 10.5719 11.6562C10.4865 11.6235 10.4012 11.6018 10.3052 11.6018C10.2091 11.6018 10.1131 11.6235 10.0384 11.6562C9.96375 11.6888 9.88907 11.7541 9.83572 11.8412C9.78237 11.9282 9.7397 12.0371 9.70769 12.1785C9.67568 12.32 9.66501 12.4941 9.66501 12.7008V13.7564C9.66501 13.9632 9.67568 14.1373 9.70769 14.2787C9.7397 14.4202 9.78237 14.5399 9.83572 14.6269C9.88907 14.714 9.95308 14.7793 10.0384 14.8119C10.1238 14.8446 10.2091 14.8663 10.3052 14.8663C10.4012 14.8663 10.4972 14.8446 10.5719 14.8119C10.6466 14.7793 10.7213 14.714 10.7746 14.6269C10.828 14.5399 10.8706 14.4202 10.892 14.2787C10.9133 14.1373 10.9347 13.9632 10.9347 13.7564V12.7008H10.9453Z" fill="#9D9D9D"/>
</svg>
