<svg width="19" height="23" viewBox="0 0 19 23" fill="none" xmlns="http://www.w3.org/2000/svg">
<path d="M9.45938 4.58182V1.54576C9.45938 1.05608 8.88324 0.816677 8.5525 1.1649L4.50884 5.28914C4.29546 5.50678 4.29546 5.84412 4.50884 6.06175L8.5525 10.186C8.88324 10.5233 9.45938 10.2839 9.45938 9.80513V6.7582C13.439 6.7582 16.5865 10.4798 15.7116 14.6911C15.2101 17.1613 13.247 19.1527 10.8357 19.6641C7.02679 20.4803 3.63396 17.8142 3.12184 14.2123C3.05782 13.69 2.60971 13.2873 2.07625 13.2873C1.43609 13.2873 0.92397 13.8641 1.00932 14.517C1.67082 19.2941 6.13057 22.8308 11.1771 21.8296C14.5059 21.1658 17.1839 18.4345 17.8348 15.0393C18.891 9.45691 14.7407 4.58182 9.45938 4.58182V4.58182ZM8.28577 16.5519H7.37888V13.0044L6.30128 13.3417V12.5909L8.18974 11.9053H8.28577V16.5519ZM12.8522 14.6367C12.8522 14.9849 12.8202 15.2896 12.7455 15.529C12.6708 15.7684 12.5641 15.986 12.4361 16.1493C12.3081 16.3125 12.1374 16.4322 11.956 16.5084C11.7746 16.5846 11.5612 16.6172 11.3265 16.6172C11.0918 16.6172 10.8891 16.5846 10.697 16.5084C10.505 16.4322 10.3449 16.3125 10.2062 16.1493C10.0675 15.986 9.96084 15.7793 9.88616 15.529C9.81147 15.2787 9.76879 14.9849 9.76879 14.6367V13.8314C9.76879 13.4832 9.8008 13.1785 9.87549 12.9391C9.95017 12.6997 10.0569 12.4821 10.1849 12.3188C10.3129 12.1556 10.4836 12.0359 10.665 11.9597C10.8464 11.8836 11.0598 11.8509 11.2945 11.8509C11.5292 11.8509 11.7319 11.8836 11.924 11.9597C12.116 12.0359 12.2761 12.1556 12.4148 12.3188C12.5535 12.4821 12.6602 12.6888 12.7349 12.9391C12.8095 13.1894 12.8522 13.4832 12.8522 13.8314V14.6367V14.6367ZM11.9453 13.7008C11.9453 13.4941 11.9347 13.32 11.9026 13.1785C11.8706 13.0371 11.828 12.9282 11.7746 12.8412C11.7213 12.7541 11.6573 12.6888 11.5719 12.6562C11.4865 12.6235 11.4012 12.6018 11.3052 12.6018C11.2091 12.6018 11.1131 12.6235 11.0384 12.6562C10.9638 12.6888 10.8891 12.7541 10.8357 12.8412C10.7824 12.9282 10.7397 13.0371 10.7077 13.1785C10.6757 13.32 10.665 13.4941 10.665 13.7008V14.7564C10.665 14.9632 10.6757 15.1373 10.7077 15.2787C10.7397 15.4202 10.7824 15.5399 10.8357 15.6269C10.8891 15.714 10.9531 15.7793 11.0384 15.8119C11.1238 15.8446 11.2091 15.8663 11.3052 15.8663C11.4012 15.8663 11.4972 15.8446 11.5719 15.8119C11.6466 15.7793 11.7213 15.714 11.7746 15.6269C11.828 15.5399 11.8706 15.4202 11.892 15.2787C11.9133 15.1373 11.9347 14.9632 11.9347 14.7564V13.7008H11.9453Z" fill="#E1E1E1"/>
</svg>
