<svg width="10" height="13" viewBox="0 0 10 13" fill="none" xmlns="http://www.w3.org/2000/svg">
<path d="M0.714286 11.5556C0.714286 12.35 1.35714 13 2.14286 13H7.85714C8.64286 13 9.28571 12.35 9.28571 11.5556V4.33333C9.28571 3.53889 8.64286 2.88889 7.85714 2.88889H2.14286C1.35714 2.88889 0.714286 3.53889 0.714286 4.33333V11.5556ZM9.28571 0.722222H7.5L6.99286 0.209444C6.86429 0.0794444 6.67857 0 6.49286 0H3.50714C3.32143 0 3.13571 0.0794444 3.00714 0.209444L2.5 0.722222H0.714286C0.321429 0.722222 0 1.04722 0 1.44444C0 1.84167 0.321429 2.16667 0.714286 2.16667H9.28571C9.67857 2.16667 10 1.84167 10 1.44444C10 1.04722 9.67857 0.722222 9.28571 0.722222Z" fill="#C4C4C4"/>
</svg>
