<svg width="12" height="9" viewBox="0 0 12 9" fill="none" xmlns="http://www.w3.org/2000/svg">
<path d="M10.8 0H1.2C0.54 0 0.00599999 0.50625 0.00599999 1.125L0 7.875C0 8.49375 0.54 9 1.2 9H10.8C11.46 9 12 8.49375 12 7.875V1.125C12 0.50625 11.46 0 10.8 0ZM10.56 2.39062L6.318 4.87687C6.126 4.98938 5.874 4.98938 5.682 4.87687L1.44 2.39062C1.29 2.30063 1.2 2.14875 1.2 1.98563C1.2 1.60875 1.638 1.38375 1.98 1.58062L6 3.9375L10.02 1.58062C10.362 1.38375 10.8 1.60875 10.8 1.98563C10.8 2.14875 10.71 2.30063 10.56 2.39062Z" fill="#9D9D9D"/>
</svg>
