<svg width="22" height="21" viewBox="0 0 22 21" fill="none" xmlns="http://www.w3.org/2000/svg">
<path d="M10.989 0C4.917 0 0 4.704 0 10.5C0 16.296 4.917 21 10.989 21C17.072 21 22 16.296 22 10.5C22 4.704 17.072 0 10.989 0ZM14.542 16.1595L11 14.1225L7.458 16.1595C7.04 16.401 6.523 16.044 6.633 15.5925L7.568 11.7495L4.455 9.177C4.092 8.8725 4.29 8.295 4.774 8.253L8.888 7.917L10.494 4.2945C10.681 3.864 11.319 3.864 11.506 4.2945L13.112 7.9065L17.226 8.2425C17.71 8.2845 17.908 8.862 17.534 9.1665L14.421 11.739L15.356 15.5925C15.466 16.044 14.96 16.401 14.542 16.1595Z" fill="#FFDC7D"/>
</svg>
