<svg width="19" height="23" viewBox="0 0 19 23" fill="none" xmlns="http://www.w3.org/2000/svg">
<path d="M15.9847 13.2947C15.4825 13.2947 15.0706 13.6975 15.0003 14.2309C14.5181 17.8993 11.2133 20.588 7.54684 19.6301C5.28669 19.0423 3.6192 17.1591 3.13703 14.699C2.32338 10.4863 5.28669 6.76345 9.03351 6.76345V9.80051C9.03351 10.2904 9.57595 10.5298 9.88735 10.1815L13.6944 6.0559C13.8953 5.83819 13.8953 5.50074 13.6944 5.28303L9.88735 1.15742C9.57595 0.819974 9.03351 1.05945 9.03351 1.5493V4.58635C4.07123 4.58635 0.15363 9.46306 1.15814 15.0364C1.76085 18.4218 4.07123 21.0234 7.17517 21.7745C12.027 22.9502 16.3664 19.3797 16.9892 14.5139C17.0797 13.8717 16.5874 13.2947 15.9847 13.2947ZM7.92855 16.5604V11.9123H7.83815L6.06016 12.5981V13.3492L7.07472 13.0117V16.5604H7.92855ZM11.364 11.9667C11.1832 11.8905 10.9923 11.8579 10.7713 11.8579C10.5503 11.8579 10.3595 11.8905 10.1787 11.9667C9.99785 12.0429 9.84717 12.1627 9.72663 12.3259C9.60608 12.4892 9.49559 12.696 9.43532 12.9464C9.37505 13.1968 9.33487 13.4907 9.33487 13.839V14.6445C9.33487 14.9929 9.37505 15.2977 9.44536 15.5372C9.51568 15.7766 9.61613 15.9944 9.74672 16.1576C9.8773 16.3209 10.028 16.4407 10.2088 16.5169C10.3896 16.5931 10.5805 16.6257 10.8015 16.6257C11.0224 16.6257 11.2133 16.5931 11.3941 16.5169C11.5749 16.4407 11.7256 16.3209 11.8461 16.1576C11.9667 15.9944 12.0671 15.7875 12.1375 15.5372C12.2078 15.2868 12.2379 14.9929 12.2379 14.6445V13.839C12.2379 13.4907 12.1977 13.1859 12.1274 12.9464C12.0571 12.7069 11.9566 12.4892 11.8261 12.3259C11.6955 12.1627 11.5347 12.0429 11.364 11.9667ZM11.374 14.7643C11.374 14.9711 11.364 15.1453 11.3338 15.2868C11.3037 15.4283 11.2736 15.548 11.2233 15.6351C11.1731 15.7222 11.1129 15.7875 11.0325 15.8202C10.9521 15.8528 10.8718 15.8746 10.7814 15.8746C10.691 15.8746 10.6006 15.8528 10.5302 15.8202C10.4599 15.7875 10.3896 15.7222 10.3394 15.6351C10.2892 15.548 10.249 15.4283 10.2188 15.2868C10.1887 15.1453 10.1787 14.9711 10.1787 14.7643V13.7084C10.1787 13.5016 10.1887 13.3274 10.2188 13.1859C10.249 13.0444 10.2791 12.9355 10.3394 12.8484C10.3997 12.7614 10.4499 12.696 10.5302 12.6634C10.6106 12.6307 10.691 12.609 10.7814 12.609C10.8718 12.609 10.9622 12.6307 11.0325 12.6634C11.1028 12.696 11.1731 12.7614 11.2233 12.8484C11.2736 12.9355 11.3138 13.0444 11.3439 13.1859C11.374 13.3274 11.3841 13.5016 11.3841 13.7084V14.7643H11.374Z" fill="#E1E1E1"/>
</svg>
