<svg width="19" height="23" viewBox="0 0 19 23" fill="none" xmlns="http://www.w3.org/2000/svg">
<path d="M16.9213 13.2947C16.3876 13.2947 15.95 13.6975 15.8753 14.2309C15.363 17.8993 11.8516 20.588 7.95601 19.6301C5.5546 19.0423 3.7829 17.1591 3.27059 14.699C2.40609 10.4863 5.5546 6.76345 9.53561 6.76345V9.80051C9.53561 10.2904 10.1119 10.5298 10.4428 10.1815L14.4879 6.0559C14.7013 5.83819 14.7013 5.50074 14.4879 5.28303L10.4428 1.15742C10.1119 0.819974 9.53561 1.05945 9.53561 1.5493V4.58635C4.26318 4.58635 0.100732 9.46306 1.16803 15.0364C1.8084 18.4218 4.26318 21.0234 7.56111 21.7745C12.7161 22.9502 17.3269 19.3797 17.9886 14.5139C18.0846 13.8717 17.5617 13.2947 16.9213 13.2947ZM8.36159 16.5604V11.9123H8.26553L6.37642 12.5981V13.3492L7.45439 13.0117V16.5604H8.36159ZM12.0117 11.9667C11.8196 11.8905 11.6168 11.8579 11.382 11.8579C11.1472 11.8579 10.9444 11.8905 10.7523 11.9667C10.5602 12.0429 10.4001 12.1627 10.272 12.3259C10.144 12.4892 10.0266 12.696 9.96253 12.9464C9.89849 13.1968 9.8558 13.4907 9.8558 13.839V14.6445C9.8558 14.9929 9.89849 15.2977 9.9732 15.5372C10.0479 15.7766 10.1546 15.9944 10.2934 16.1576C10.4321 16.3209 10.5922 16.4407 10.7843 16.5169C10.9765 16.5931 11.1792 16.6257 11.414 16.6257C11.6489 16.6257 11.8516 16.5931 12.0437 16.5169C12.2359 16.4407 12.396 16.3209 12.524 16.1576C12.6521 15.9944 12.7588 15.7875 12.8335 15.5372C12.9083 15.2868 12.9403 14.9929 12.9403 14.6445V13.839C12.9403 13.4907 12.8976 13.1859 12.8229 12.9464C12.7482 12.7069 12.6414 12.4892 12.5027 12.3259C12.3639 12.1627 12.1932 12.0429 12.0117 11.9667ZM12.0224 14.7643C12.0224 14.9711 12.0117 15.1453 11.9797 15.2868C11.9477 15.4283 11.9157 15.548 11.8623 15.6351C11.8089 15.7222 11.7449 15.7875 11.6595 15.8202C11.5741 15.8528 11.4888 15.8746 11.3927 15.8746C11.2966 15.8746 11.2006 15.8528 11.1259 15.8202C11.0512 15.7875 10.9765 15.7222 10.9231 15.6351C10.8697 15.548 10.827 15.4283 10.795 15.2868C10.763 15.1453 10.7523 14.9711 10.7523 14.7643V13.7084C10.7523 13.5016 10.763 13.3274 10.795 13.1859C10.827 13.0444 10.8591 12.9355 10.9231 12.8484C10.9871 12.7614 11.0405 12.696 11.1259 12.6634C11.2113 12.6307 11.2966 12.609 11.3927 12.609C11.4888 12.609 11.5848 12.6307 11.6595 12.6634C11.7342 12.696 11.8089 12.7614 11.8623 12.8484C11.9157 12.9355 11.9584 13.0444 11.9904 13.1859C12.0224 13.3274 12.0331 13.5016 12.0331 13.7084V14.7643H12.0224Z" fill="#E1E1E1"/>
</svg>
