<svg width="16" height="21" viewBox="0 0 16 21" fill="none" xmlns="http://www.w3.org/2000/svg">
<path d="M14.9847 12.2947C14.4825 12.2947 14.0706 12.6975 14.0003 13.2309C13.5181 16.8993 10.2133 19.588 6.54684 18.6301C4.28669 18.0423 2.6192 16.1591 2.13703 13.699C1.32338 9.48629 4.28668 5.76345 8.03351 5.76345V8.80051C8.03351 9.29035 8.57595 9.52983 8.88735 9.1815L12.6944 5.0559C12.8953 4.83819 12.8953 4.50074 12.6944 4.28303L8.88735 0.157424C8.57595 -0.180026 8.03351 0.0594548 8.03351 0.549302V3.58635C3.07123 3.58635 -0.84637 8.46306 0.158142 14.0364C0.760849 17.4218 3.07123 20.0234 6.17517 20.7745C11.027 21.9502 15.3664 18.3797 15.9892 13.5139C16.0797 12.8717 15.5874 12.2947 14.9847 12.2947ZM6.92855 15.5604V10.9123H6.83815L5.06016 11.5981V12.3492L6.07472 12.0117V15.5604H6.92855ZM10.364 10.9667C10.1832 10.8905 9.99231 10.8579 9.77132 10.8579C9.55033 10.8579 9.35947 10.8905 9.17866 10.9667C8.99785 11.0429 8.84717 11.1627 8.72663 11.3259C8.60608 11.4892 8.49559 11.696 8.43532 11.9464C8.37505 12.1968 8.33487 12.4907 8.33487 12.839V13.6445C8.33487 13.9929 8.37505 14.2977 8.44536 14.5372C8.51568 14.7766 8.61613 14.9944 8.74672 15.1576C8.8773 15.3209 9.02798 15.4407 9.20879 15.5169C9.3896 15.5931 9.58046 15.6257 9.80145 15.6257C10.0224 15.6257 10.2133 15.5931 10.3941 15.5169C10.5749 15.4407 10.7256 15.3209 10.8461 15.1576C10.9667 14.9944 11.0671 14.7875 11.1375 14.5372C11.2078 14.2868 11.2379 13.9929 11.2379 13.6445V12.839C11.2379 12.4907 11.1977 12.1859 11.1274 11.9464C11.0571 11.7069 10.9566 11.4892 10.8261 11.3259C10.6955 11.1627 10.5347 11.0429 10.364 10.9667ZM10.374 13.7643C10.374 13.9711 10.364 14.1453 10.3338 14.2868C10.3037 14.4283 10.2736 14.548 10.2233 14.6351C10.1731 14.7222 10.1129 14.7875 10.0325 14.8202C9.95213 14.8528 9.87177 14.8746 9.78136 14.8746C9.69096 14.8746 9.60055 14.8528 9.53024 14.8202C9.45992 14.7875 9.3896 14.7222 9.33938 14.6351C9.28915 14.548 9.24897 14.4283 9.21884 14.2868C9.1887 14.1453 9.17866 13.9711 9.17866 13.7643V12.7084C9.17866 12.5016 9.1887 12.3274 9.21884 12.1859C9.24897 12.0444 9.27911 11.9355 9.33938 11.8484C9.39965 11.7614 9.44987 11.696 9.53024 11.6634C9.6106 11.6307 9.69096 11.609 9.78136 11.609C9.87177 11.609 9.96218 11.6307 10.0325 11.6634C10.1028 11.696 10.1731 11.7614 10.2233 11.8484C10.2736 11.9355 10.3138 12.0444 10.3439 12.1859C10.374 12.3274 10.3841 12.5016 10.3841 12.7084V13.7643H10.374Z" fill="#9D9D9D"/>
</svg>
