<svg width="30" height="30" viewBox="0 0 30 30" fill="none" xmlns="http://www.w3.org/2000/svg">
<circle cx="15" cy="15.6001" r="12" fill="#6465F4"/>
<path d="M14.985 0C6.705 0 0 6.72 0 15C0 23.28 6.705 30 14.985 30C23.28 30 30 23.28 30 15C30 6.72 23.28 0 14.985 0ZM19.83 23.085L15 20.175L10.17 23.085C9.6 23.43 8.895 22.92 9.045 22.275L10.32 16.785L6.075 13.11C5.58 12.675 5.85 11.85 6.51 11.79L12.12 11.31L14.31 6.135C14.565 5.52 15.435 5.52 15.69 6.135L17.88 11.295L23.49 11.775C24.15 11.835 24.42 12.66 23.91 13.095L19.665 16.77L20.94 22.275C21.09 22.92 20.4 23.43 19.83 23.085Z" fill="white"/>
</svg>
