<svg width="10" height="10" viewBox="0 0 10 10" fill="none" xmlns="http://www.w3.org/2000/svg">
<path d="M8.82035 5.49C8.84091 5.33 8.85633 5.17 8.85633 5C8.85633 4.83 8.84091 4.67 8.82035 4.51L9.90495 3.685C10.0026 3.61 10.0283 3.475 9.96663 3.365L8.93858 1.635C8.8769 1.525 8.73811 1.485 8.62502 1.525L7.3451 2.025C7.0778 1.825 6.78995 1.66 6.47639 1.535L6.28106 0.21C6.26564 0.09 6.1577 0 6.02919 0H3.97308C3.84458 0 3.73663 0.09 3.72121 0.21L3.52588 1.535C3.21232 1.66 2.92447 1.83 2.65717 2.025L1.37725 1.525C1.25902 1.48 1.12537 1.525 1.06369 1.635L0.0356383 3.365C-0.0311852 3.475 -0.000343525 3.61 0.0973215 3.685L1.18192 4.51C1.16136 4.67 1.14594 4.835 1.14594 5C1.14594 5.165 1.16136 5.33 1.18192 5.49L0.0973215 6.315C-0.000343525 6.39 -0.0260449 6.525 0.0356383 6.635L1.06369 8.365C1.12537 8.475 1.26416 8.515 1.37725 8.475L2.65717 7.975C2.92447 8.175 3.21232 8.34 3.52588 8.465L3.72121 9.79C3.73663 9.91 3.84458 10 3.97308 10H6.02919C6.1577 10 6.26564 9.91 6.28106 9.79L6.47639 8.465C6.78995 8.34 7.0778 8.17 7.3451 7.975L8.62502 8.475C8.74325 8.52 8.8769 8.475 8.93858 8.365L9.96663 6.635C10.0283 6.525 10.0026 6.39 9.90495 6.315L8.82035 5.49V5.49ZM5.00114 6.75C4.00906 6.75 3.20204 5.965 3.20204 5C3.20204 4.035 4.00906 3.25 5.00114 3.25C5.99321 3.25 6.80023 4.035 6.80023 5C6.80023 5.965 5.99321 6.75 5.00114 6.75Z" fill="#9D9D9D"/>
</svg>
