<svg width="13" height="13" viewBox="0 0 13 13" fill="none" xmlns="http://www.w3.org/2000/svg">
<path d="M11.4665 7.137C11.4932 6.929 11.5132 6.721 11.5132 6.5C11.5132 6.279 11.4932 6.071 11.4665 5.863L12.8764 4.7905C13.0034 4.693 13.0368 4.5175 12.9566 4.3745L11.6202 2.1255C11.54 1.9825 11.3595 1.9305 11.2125 1.9825L9.54863 2.6325C9.20114 2.3725 8.82693 2.158 8.41931 1.9955L8.16538 0.273C8.14533 0.117 8.005 0 7.83795 0H5.16501C4.99795 0 4.85762 0.117 4.83757 0.273L4.58364 1.9955C4.17602 2.158 3.80181 2.379 3.45433 2.6325L1.79042 1.9825C1.63673 1.924 1.46299 1.9825 1.3828 2.1255L0.0463297 4.3745C-0.0405407 4.5175 -0.000446583 4.693 0.126518 4.7905L1.53649 5.863C1.50976 6.071 1.48972 6.2855 1.48972 6.5C1.48972 6.7145 1.50976 6.929 1.53649 7.137L0.126518 8.2095C-0.000446583 8.307 -0.0338584 8.4825 0.0463297 8.6255L1.3828 10.8745C1.46299 11.0175 1.64341 11.0695 1.79042 11.0175L3.45433 10.3675C3.80181 10.6275 4.17602 10.842 4.58364 11.0045L4.83757 12.727C4.85762 12.883 4.99795 13 5.16501 13H7.83795C8.005 13 8.14533 12.883 8.16538 12.727L8.41931 11.0045C8.82693 10.842 9.20114 10.621 9.54863 10.3675L11.2125 11.0175C11.3662 11.076 11.54 11.0175 11.6202 10.8745L12.9566 8.6255C13.0368 8.4825 13.0034 8.307 12.8764 8.2095L11.4665 7.137ZM6.50148 8.775C5.21178 8.775 4.16265 7.7545 4.16265 6.5C4.16265 5.2455 5.21178 4.225 6.50148 4.225C7.79117 4.225 8.8403 5.2455 8.8403 6.5C8.8403 7.7545 7.79117 8.775 6.50148 8.775Z" fill="#9D9D9D"/>
</svg>
