<svg width="13" height="13" viewBox="0 0 13 13" fill="none" xmlns="http://www.w3.org/2000/svg">
<path d="M6.5 0C2.912 0 0 2.912 0 6.5C0 10.088 2.912 13 6.5 13C10.088 13 13 10.088 13 6.5C13 2.912 10.088 0 6.5 0ZM6.5 9.425C4.8815 9.425 3.575 8.1185 3.575 6.5C3.575 4.8815 4.8815 3.575 6.5 3.575C8.1185 3.575 9.425 4.8815 9.425 6.5C9.425 8.1185 8.1185 9.425 6.5 9.425ZM6.5 5.85C6.1425 5.85 5.85 6.1425 5.85 6.5C5.85 6.8575 6.1425 7.15 6.5 7.15C6.8575 7.15 7.15 6.8575 7.15 6.5C7.15 6.1425 6.8575 5.85 6.5 5.85Z" fill="#9D9D9D"/>
</svg>
