<svg width="19" height="19" viewBox="0 0 19 19" fill="none" xmlns="http://www.w3.org/2000/svg">
<path d="M9.5 0C4.256 0 0 4.256 0 9.5C0 14.744 4.256 19 9.5 19C14.744 19 19 14.744 19 9.5C19 4.256 14.744 0 9.5 0ZM9.5 13.775C7.1345 13.775 5.225 11.8655 5.225 9.5C5.225 7.1345 7.1345 5.225 9.5 5.225C11.8655 5.225 13.775 7.1345 13.775 9.5C13.775 11.8655 11.8655 13.775 9.5 13.775ZM9.5 8.55C8.9775 8.55 8.55 8.9775 8.55 9.5C8.55 10.0225 8.9775 10.45 9.5 10.45C10.0225 10.45 10.45 10.0225 10.45 9.5C10.45 8.9775 10.0225 8.55 9.5 8.55Z" fill="#9D9D9D"/>
</svg>
