<svg width="19" height="19" viewBox="0 0 19 19" fill="none" xmlns="http://www.w3.org/2000/svg">
<path d="M16.7587 10.431C16.7977 10.127 16.827 9.823 16.827 9.5C16.827 9.177 16.7977 8.873 16.7587 8.569L18.8194 7.0015C19.005 6.859 19.0538 6.6025 18.9366 6.3935L16.9833 3.1065C16.8661 2.8975 16.6024 2.8215 16.3875 2.8975L13.9557 3.8475C13.4478 3.4675 12.9009 3.154 12.3051 2.9165L11.934 0.399C11.9047 0.171 11.6996 0 11.4555 0H7.54886C7.30469 0 7.0996 0.171 7.0703 0.399L6.69917 2.9165C6.10341 3.154 5.55649 3.477 5.04863 3.8475L2.61677 2.8975C2.39214 2.812 2.13821 2.8975 2.02101 3.1065L0.0677127 6.3935C-0.0592519 6.6025 -0.000652698 6.859 0.184911 7.0015L2.24564 8.569C2.20658 8.873 2.17728 9.1865 2.17728 9.5C2.17728 9.8135 2.20658 10.127 2.24564 10.431L0.184911 11.9985C-0.000652698 12.141 -0.0494854 12.3975 0.0677127 12.6065L2.02101 15.8935C2.13821 16.1025 2.40191 16.1785 2.61677 16.1025L5.04863 15.1525C5.55649 15.5325 6.10341 15.846 6.69917 16.0835L7.0703 18.601C7.0996 18.829 7.30469 19 7.54886 19H11.4555C11.6996 19 11.9047 18.829 11.934 18.601L12.3051 16.0835C12.9009 15.846 13.4478 15.523 13.9557 15.1525L16.3875 16.1025C16.6122 16.188 16.8661 16.1025 16.9833 15.8935L18.9366 12.6065C19.0538 12.3975 19.005 12.141 18.8194 11.9985L16.7587 10.431ZM9.50216 12.825C7.61722 12.825 6.08388 11.3335 6.08388 9.5C6.08388 7.6665 7.61722 6.175 9.50216 6.175C11.3871 6.175 12.9204 7.6665 12.9204 9.5C12.9204 11.3335 11.3871 12.825 9.50216 12.825Z" fill="#9D9D9D"/>
</svg>
