<svg width="91" height="14" viewBox="0 0 91 14" fill="none" xmlns="http://www.w3.org/2000/svg">
<path fill-rule="evenodd" clip-rule="evenodd" d="M2.62248 0L0 13.7407H4.45821L5.5072 8.81481H7.60519C8.74159 10.8889 12.1159 14.7778 16.5216 13.7407L12.0634 6.74074L18.3573 0H12.5879L8.12968 4.92593H6.0317L7.08069 0H2.62248ZM19.4063 0H23.6023L22.8156 4.92593H29.3718C29.4592 4.92593 29.6865 4.82222 29.8963 4.40741C30.1061 3.99259 30.5082 1.2963 30.683 0H35.1412L33.0432 11.6667C32.781 12.2716 31.9942 13.4815 30.9452 13.4815H17.0461C17.0461 12.358 17.7804 10.1111 20.7176 10.1111H27.536C27.9731 10.1111 28.8997 9.85185 29.1095 8.81481H19.9308C19.4063 8.55556 18.3573 7.77778 18.3573 6.74074C18.3573 5.7037 19.0567 1.81481 19.4063 0ZM34.0922 13.7407L36.7147 0H49.8271C51.5055 0 51.9251 1.55556 51.9251 2.33333C51.8377 2.76543 51.5579 4.2 51.1383 6.48148C50.7187 8.76296 48.341 9.33333 47.2046 9.33333L50.6138 14H46.6801C44.1625 14 42.3093 10.8889 41.6974 9.33333H39.3372L38.5504 13.7407H34.0922ZM53.4986 0L50.8761 14H55.3343L57.9568 0H53.4986ZM61.1037 0H74.4784C74.4784 2.6963 72.3804 3.54321 71.3314 3.62963H62.9395L61.8905 10.1111H72.9049C72.6951 12.8074 70.8943 13.6543 70.0202 13.7407H60.0548C57.5372 13.7407 57.2574 12.0123 57.4323 11.1481C57.7819 9.50617 58.5337 5.7037 58.7435 3.62963C58.9533 1.55556 60.4044 0.345679 61.1037 0ZM91 0H77.8876C77.1009 0 75.4225 0.622222 75.0029 3.11111C74.5833 5.6 74.1287 7.77778 73.9539 8.55556H85.2305L84.9683 10.1111H75.5274C74.5658 10.1975 72.6426 11.0444 72.6426 13.7407H86.2795C87.1537 13.4815 89.0069 12.3926 89.4265 10.1111C89.8461 7.82963 90.1258 5.7037 90.2133 4.92593H78.9366L79.1988 3.62963H87.853C88.902 3.62963 91 2.9037 91 0ZM40.3862 3.60862L40.1239 5.41297H46.9424L47.2046 3.60862H40.3862Z" fill="#E1E1E1"/>
</svg>
