<svg width="137" height="22" viewBox="0 0 137 22" fill="none" xmlns="http://www.w3.org/2000/svg">
<path fill-rule="evenodd" clip-rule="evenodd" d="M3.94813 0L0 21.5926H6.71182L8.29107 13.8519H11.4496C13.1604 17.1111 18.2403 23.2222 24.8732 21.5926L18.1614 10.5926L27.6369 0H18.951L12.2392 7.74074H9.08069L10.6599 0H3.94813ZM29.2161 0H35.5331L34.3487 7.74074H44.219C44.3506 7.74074 44.6928 7.57778 45.0086 6.92593C45.3245 6.27407 45.9299 2.03704 46.1931 0H52.9049L49.7464 18.3333C49.3516 19.284 48.1671 21.1852 46.5879 21.1852H25.6628C25.6628 19.4198 26.7683 15.8889 31.1902 15.8889H41.4553C42.1133 15.8889 43.5084 15.4815 43.8242 13.8519H30.0058C29.2161 13.4444 27.6369 12.2222 27.6369 10.5926C27.6369 8.96296 28.6897 2.85185 29.2161 0ZM51.3256 21.5926L55.2738 0H75.0144C77.5412 0 78.1729 2.44444 78.1729 3.66667C78.0413 4.34568 77.6202 6.6 76.9885 10.1852C76.3568 13.7704 72.7771 14.6667 71.0663 14.6667L76.1988 22H70.2767C66.4865 22 63.6964 17.1111 62.7752 14.6667H59.2219L58.0375 21.5926H51.3256ZM80.5418 0L76.5937 22H83.3055L87.2536 0H80.5418ZM91.9914 0H112.127C112.127 4.23704 108.968 5.5679 107.389 5.7037H94.755L93.1758 15.8889H109.758C109.442 20.1259 106.731 21.4568 105.415 21.5926H90.4121C86.6219 21.5926 86.2008 18.8765 86.464 17.5185C86.9904 14.9383 88.1222 8.96296 88.438 5.7037C88.7539 2.44444 90.9385 0.54321 91.9914 0ZM137 0H117.259C116.075 0 113.548 0.977778 112.916 4.88889C112.285 8.8 111.6 12.2222 111.337 13.4444H128.314L127.919 15.8889H113.706C112.258 16.0247 109.363 17.3556 109.363 21.5926H129.893C131.209 21.1852 133.999 19.4741 134.631 15.8889C135.263 12.3037 135.684 8.96296 135.816 7.74074H118.839L119.233 5.7037H132.262C133.841 5.7037 137 4.56296 137 0ZM60.8011 5.67102L60.4062 8.50643H70.6714L71.0662 5.67102H60.8011Z" fill="#E1E1E1"/>
</svg>
