<svg width="414" height="100" viewBox="0 0 414 100" fill="none" xmlns="http://www.w3.org/2000/svg">
<path fill-rule="evenodd" clip-rule="evenodd" d="M10 0C4.47715 0 0 4.47715 0 9.99999V18.1034V83.9655V100H390L414 50L390 0H381L381.043 0.0536862C380.7 0.0181917 380.352 0 380 0H10Z" fill="#6465F4"/>
<path d="M186.637 70V58.576H188.365V68.512H193.245V70H186.637ZM193.711 61.376H195.535L197.327 66.272C197.466 66.6453 197.583 67.008 197.679 67.36C197.786 67.7013 197.866 68.0373 197.919 68.368H197.983C198.037 68.0907 198.117 67.7653 198.223 67.392C198.341 67.0187 198.469 66.64 198.607 66.256L200.303 61.376H202.127L198.431 71.168C198.122 72 197.706 72.6507 197.183 73.12C196.671 73.6 195.999 73.84 195.167 73.84C194.901 73.84 194.671 73.824 194.479 73.792C194.287 73.7707 194.122 73.744 193.983 73.712V72.368C194.09 72.3893 194.229 72.4107 194.399 72.432C194.57 72.4533 194.746 72.464 194.927 72.464C195.418 72.464 195.813 72.32 196.111 72.032C196.41 71.7547 196.645 71.3867 196.815 70.928L197.167 70L193.711 61.376ZM207.717 61.216C207.866 61.216 208.026 61.2267 208.197 61.248C208.378 61.2587 208.533 61.2747 208.661 61.296L208.485 62.88C208.207 62.8053 207.919 62.768 207.621 62.768C207.194 62.768 206.789 62.8747 206.405 63.088C206.031 63.3013 205.727 63.6107 205.493 64.016C205.269 64.4107 205.157 64.8907 205.157 65.456V70H203.461V61.376H204.805L205.029 62.912H205.093C205.37 62.4533 205.727 62.0587 206.165 61.728C206.602 61.3867 207.119 61.216 207.717 61.216ZM211.122 58.096C211.378 58.096 211.602 58.1707 211.794 58.32C211.986 58.4693 212.082 58.72 212.082 59.072C212.082 59.4133 211.986 59.664 211.794 59.824C211.602 59.9733 211.378 60.048 211.122 60.048C210.844 60.048 210.61 59.9733 210.418 59.824C210.236 59.664 210.146 59.4133 210.146 59.072C210.146 58.72 210.236 58.4693 210.418 58.32C210.61 58.1707 210.844 58.096 211.122 58.096ZM211.954 61.376V70H210.258V61.376H211.954ZM218.089 70.16C216.894 70.16 215.934 69.808 215.209 69.104C214.484 68.3893 214.121 67.2693 214.121 65.744C214.121 64.6773 214.297 63.8133 214.649 63.152C215.001 62.4907 215.486 62.0053 216.105 61.696C216.724 61.376 217.428 61.216 218.217 61.216C218.697 61.216 219.145 61.2693 219.561 61.376C219.988 61.472 220.34 61.584 220.617 61.712L220.105 63.088C219.806 62.9707 219.486 62.8693 219.145 62.784C218.814 62.6987 218.5 62.656 218.201 62.656C216.644 62.656 215.865 63.68 215.865 65.728C215.865 66.7093 216.057 67.456 216.441 67.968C216.825 68.48 217.39 68.736 218.137 68.736C218.617 68.736 219.038 68.6827 219.401 68.576C219.774 68.4693 220.116 68.3307 220.425 68.16V69.632C220.116 69.8133 219.78 69.9467 219.417 70.032C219.054 70.1173 218.612 70.16 218.089 70.16ZM228.189 67.568C228.189 68.4107 227.879 69.056 227.261 69.504C226.642 69.9413 225.783 70.16 224.685 70.16C224.077 70.16 223.554 70.112 223.117 70.016C222.69 69.9307 222.295 69.8027 221.933 69.632V68.144C222.306 68.3253 222.743 68.4907 223.245 68.64C223.757 68.7787 224.253 68.848 224.733 68.848C225.373 68.848 225.831 68.7467 226.109 68.544C226.397 68.3413 226.541 68.0693 226.541 67.728C226.541 67.536 226.487 67.3653 226.381 67.216C226.274 67.056 226.071 66.896 225.773 66.736C225.485 66.5653 225.058 66.3733 224.493 66.16C223.938 65.936 223.469 65.7173 223.085 65.504C222.711 65.28 222.423 65.0187 222.221 64.72C222.018 64.4107 221.917 64.016 221.917 63.536C221.917 62.7893 222.215 62.2187 222.813 61.824C223.421 61.4187 224.221 61.216 225.213 61.216C225.735 61.216 226.226 61.2693 226.685 61.376C227.154 61.4827 227.607 61.632 228.045 61.824L227.485 63.12C227.111 62.96 226.727 62.8267 226.333 62.72C225.938 62.6027 225.538 62.544 225.133 62.544C224.621 62.544 224.231 62.624 223.965 62.784C223.698 62.944 223.565 63.168 223.565 63.456C223.565 63.6587 223.629 63.8347 223.757 63.984C223.885 64.1333 224.098 64.2827 224.397 64.432C224.706 64.5813 225.127 64.7627 225.661 64.976C226.194 65.1787 226.647 65.3867 227.021 65.6C227.405 65.8133 227.693 66.0747 227.885 66.384C228.087 66.6933 228.189 67.088 228.189 67.568Z" fill="white"/>
<path d="M181.471 44.248C181.471 45.768 180.919 46.984 179.815 47.896C178.727 48.792 177.175 49.24 175.159 49.24C173.351 49.24 171.735 48.896 170.311 48.208V44.824C171.127 45.176 171.967 45.504 172.831 45.808C173.711 46.096 174.583 46.24 175.447 46.24C176.343 46.24 176.975 46.072 177.343 45.736C177.727 45.384 177.919 44.944 177.919 44.416C177.919 43.984 177.767 43.616 177.463 43.312C177.175 43.008 176.783 42.728 176.287 42.472C175.791 42.2 175.223 41.912 174.583 41.608C174.183 41.416 173.751 41.192 173.287 40.936C172.823 40.664 172.375 40.336 171.943 39.952C171.527 39.552 171.183 39.072 170.911 38.512C170.639 37.952 170.503 37.28 170.503 36.496C170.503 34.96 171.023 33.768 172.063 32.92C173.103 32.056 174.519 31.624 176.311 31.624C177.207 31.624 178.055 31.728 178.855 31.936C179.671 32.144 180.519 32.44 181.399 32.824L180.223 35.656C179.439 35.336 178.735 35.088 178.111 34.912C177.487 34.736 176.847 34.648 176.191 34.648C175.503 34.648 174.975 34.808 174.607 35.128C174.239 35.448 174.055 35.864 174.055 36.376C174.055 36.984 174.327 37.464 174.871 37.816C175.415 38.168 176.223 38.6 177.295 39.112C178.175 39.528 178.919 39.96 179.527 40.408C180.151 40.856 180.631 41.384 180.967 41.992C181.303 42.6 181.471 43.352 181.471 44.248ZM191.186 49H187.562V34.888H182.906V31.864H195.842V34.888H191.186V49ZM208.348 49H198.484V31.864H208.348V34.84H202.108V38.608H207.916V41.584H202.108V46H208.348V49ZM217.386 31.864C219.594 31.864 221.202 32.344 222.21 33.304C223.234 34.248 223.746 35.552 223.746 37.216C223.746 38.208 223.538 39.144 223.122 40.024C222.706 40.888 222.01 41.584 221.034 42.112C220.074 42.64 218.762 42.904 217.098 42.904H215.538V49H211.914V31.864H217.386ZM217.194 34.84H215.538V39.928H216.738C217.762 39.928 218.57 39.728 219.162 39.328C219.77 38.912 220.074 38.248 220.074 37.336C220.074 35.672 219.114 34.84 217.194 34.84ZM240.971 49H237.347V39.088C237.347 38.672 237.355 38.128 237.371 37.456C237.403 36.784 237.427 36.192 237.443 35.68C237.363 35.776 237.187 35.952 236.915 36.208C236.659 36.448 236.419 36.664 236.195 36.856L234.227 38.44L232.475 36.256L237.995 31.864H240.971V49Z" fill="white"/>
</svg>
