<svg width="400" height="100" viewBox="0 0 400 100" fill="none" xmlns="http://www.w3.org/2000/svg">
<path fill-rule="evenodd" clip-rule="evenodd" d="M0 0C0.352051 0 0.69986 0.0181917 1.04251 0.0536862L1 0H0ZM10 0L34 50L10 100H400V83.9655V18.1034V10C400 4.47715 395.523 0 390 0H10Z" fill="#C8C8EE"/>
<path fill-rule="evenodd" clip-rule="evenodd" d="M0 0C0.352051 0 0.69986 0.0181917 1.04251 0.0536862L1 0H0ZM10 0L34 50L10 100H400V83.9655V18.1034V10C400 4.47715 395.523 0 390 0H10Z" fill="#6465F4"/>
<path d="M198.303 64.272C198.303 65.6373 198.036 66.8053 197.503 67.776C196.98 68.7467 196.191 69.424 195.135 69.808L197.871 72.72H195.503L193.327 70.144C193.274 70.144 193.215 70.144 193.151 70.144C193.098 70.1547 193.044 70.16 192.991 70.16C191.786 70.16 190.788 69.9147 189.999 69.424C189.21 68.9333 188.623 68.2453 188.239 67.36C187.855 66.4747 187.663 65.44 187.663 64.256C187.663 63.0827 187.855 62.0587 188.239 61.184C188.634 60.3093 189.226 59.6267 190.015 59.136C190.804 58.6453 191.802 58.4 193.007 58.4C194.18 58.4 195.156 58.6453 195.935 59.136C196.724 59.616 197.316 60.2987 197.711 61.184C198.106 62.0587 198.303 63.088 198.303 64.272ZM189.487 64.272C189.487 65.6373 189.77 66.7147 190.335 67.504C190.9 68.2933 191.786 68.688 192.991 68.688C194.207 68.688 195.092 68.2933 195.647 67.504C196.202 66.7147 196.479 65.6373 196.479 64.272C196.479 62.9067 196.202 61.8347 195.647 61.056C195.103 60.2773 194.223 59.888 193.007 59.888C191.791 59.888 190.9 60.2773 190.335 61.056C189.77 61.8347 189.487 62.9067 189.487 64.272ZM208.018 61.376V70H206.658L206.418 68.864H206.338C206.06 69.312 205.676 69.6427 205.186 69.856C204.695 70.0587 204.178 70.16 203.634 70.16C202.62 70.16 201.847 69.9093 201.314 69.408C200.78 68.9067 200.514 68.112 200.514 67.024V61.376H202.226V66.768C202.226 68.1013 202.807 68.768 203.97 68.768C204.855 68.768 205.468 68.5067 205.81 67.984C206.151 67.4613 206.322 66.7147 206.322 65.744V61.376H208.018ZM211.536 58.096C211.792 58.096 212.016 58.1707 212.208 58.32C212.4 58.4693 212.496 58.72 212.496 59.072C212.496 59.4133 212.4 59.664 212.208 59.824C212.016 59.9733 211.792 60.048 211.536 60.048C211.258 60.048 211.024 59.9733 210.832 59.824C210.65 59.664 210.56 59.4133 210.56 59.072C210.56 58.72 210.65 58.4693 210.832 58.32C211.024 58.1707 211.258 58.096 211.536 58.096ZM212.368 61.376V70H210.672V61.376H212.368ZM220.727 70H214.263V68.928L218.711 62.688H214.535V61.376H220.599V62.576L216.247 68.688H220.727V70Z" fill="white"/>
<path d="M178.471 44.248C178.471 45.768 177.919 46.984 176.815 47.896C175.727 48.792 174.175 49.24 172.159 49.24C170.351 49.24 168.735 48.896 167.311 48.208V44.824C168.127 45.176 168.967 45.504 169.831 45.808C170.711 46.096 171.583 46.24 172.447 46.24C173.343 46.24 173.975 46.072 174.343 45.736C174.727 45.384 174.919 44.944 174.919 44.416C174.919 43.984 174.767 43.616 174.463 43.312C174.175 43.008 173.783 42.728 173.287 42.472C172.791 42.2 172.223 41.912 171.583 41.608C171.183 41.416 170.751 41.192 170.287 40.936C169.823 40.664 169.375 40.336 168.943 39.952C168.527 39.552 168.183 39.072 167.911 38.512C167.639 37.952 167.503 37.28 167.503 36.496C167.503 34.96 168.023 33.768 169.063 32.92C170.103 32.056 171.519 31.624 173.311 31.624C174.207 31.624 175.055 31.728 175.855 31.936C176.671 32.144 177.519 32.44 178.399 32.824L177.223 35.656C176.439 35.336 175.735 35.088 175.111 34.912C174.487 34.736 173.847 34.648 173.191 34.648C172.503 34.648 171.975 34.808 171.607 35.128C171.239 35.448 171.055 35.864 171.055 36.376C171.055 36.984 171.327 37.464 171.871 37.816C172.415 38.168 173.223 38.6 174.295 39.112C175.175 39.528 175.919 39.96 176.527 40.408C177.151 40.856 177.631 41.384 177.967 41.992C178.303 42.6 178.471 43.352 178.471 44.248ZM188.186 49H184.562V34.888H179.906V31.864H192.842V34.888H188.186V49ZM205.348 49H195.484V31.864H205.348V34.84H199.108V38.608H204.916V41.584H199.108V46H205.348V49ZM214.386 31.864C216.594 31.864 218.202 32.344 219.21 33.304C220.234 34.248 220.746 35.552 220.746 37.216C220.746 38.208 220.538 39.144 220.122 40.024C219.706 40.888 219.01 41.584 218.034 42.112C217.074 42.64 215.762 42.904 214.098 42.904H212.538V49H208.914V31.864H214.386ZM214.194 34.84H212.538V39.928H213.738C214.762 39.928 215.57 39.728 216.162 39.328C216.77 38.912 217.074 38.248 217.074 37.336C217.074 35.672 216.114 34.84 214.194 34.84ZM240.995 49H229.019V46.48L233.315 42.136C234.179 41.24 234.875 40.496 235.403 39.904C235.931 39.296 236.315 38.752 236.555 38.272C236.795 37.776 236.915 37.248 236.915 36.688C236.915 36 236.723 35.488 236.339 35.152C235.971 34.816 235.467 34.648 234.827 34.648C234.171 34.648 233.531 34.8 232.907 35.104C232.283 35.408 231.627 35.84 230.939 36.4L228.971 34.072C229.467 33.64 229.987 33.24 230.531 32.872C231.091 32.504 231.731 32.208 232.451 31.984C233.187 31.744 234.067 31.624 235.091 31.624C236.211 31.624 237.171 31.832 237.971 32.248C238.787 32.648 239.411 33.2 239.843 33.904C240.291 34.592 240.515 35.376 240.515 36.256C240.515 37.2 240.323 38.064 239.939 38.848C239.571 39.632 239.027 40.408 238.307 41.176C237.603 41.944 236.747 42.792 235.739 43.72L233.531 45.784V45.952H240.995V49Z" fill="white"/>
</svg>
