<svg width="20" height="20" viewBox="0 0 20 20" fill="none" xmlns="http://www.w3.org/2000/svg">
<path fill-rule="evenodd" clip-rule="evenodd" d="M20 10C20 15.5228 15.5228 20 10 20C4.47715 20 0 15.5228 0 10C0 4.47715 4.47715 0 10 0C15.5228 0 20 4.47715 20 10ZM6.45166 6.1609C6.45166 5.60861 6.89938 5.1609 7.45166 5.1609H8.0323C8.58459 5.1609 9.0323 5.60862 9.0323 6.1609V13.1932C9.0323 13.7454 8.58459 14.1932 8.0323 14.1932H7.45166C6.89938 14.1932 6.45166 13.7454 6.45166 13.1932V6.1609ZM11.9678 5.1609C11.4155 5.1609 10.9678 5.60861 10.9678 6.1609V13.1932C10.9678 13.7454 11.4155 14.1932 11.9678 14.1932H12.5484C13.1007 14.1932 13.5484 13.7454 13.5484 13.1932V6.1609C13.5484 5.60862 13.1007 5.1609 12.5484 5.1609H11.9678Z" fill="white"/>
</svg>
