<svg width="20" height="20" viewBox="0 0 20 20" fill="none" xmlns="http://www.w3.org/2000/svg">
<path d="M4.31172 4.62054H15.6883V6.54639C15.6883 7.03054 16.3026 7.26724 16.6553 6.92295L19.8294 3.92121C20.0569 3.70604 20.0569 3.37251 19.8294 3.15733L16.6553 0.155594C16.3026 -0.177933 15.6883 0.0587635 15.6883 0.542915V2.46876H3.17406C2.54835 2.46876 2.03641 2.95291 2.03641 3.54465V7.84822C2.03641 8.43996 2.54835 8.92411 3.17406 8.92411C3.79977 8.92411 4.31172 8.43996 4.31172 7.84822V4.62054ZM15.6883 15.3795H4.31172V13.4536C4.31172 12.9695 3.69738 12.7328 3.34471 13.077L0.170648 16.0788C-0.0568828 16.294 -0.0568828 16.6275 0.170648 16.8427L3.34471 19.8444C3.69738 20.1779 4.31172 19.9412 4.31172 19.4571V17.5312H16.8259C17.4517 17.5312 17.9636 17.0471 17.9636 16.4553V12.1518C17.9636 11.56 17.4517 11.0759 16.8259 11.0759C16.2002 11.0759 15.6883 11.56 15.6883 12.1518V15.3795Z" fill="#F6F6F6"/>
</svg>
