<svg width="37" height="26" viewBox="0 0 37 26" fill="none" xmlns="http://www.w3.org/2000/svg">
<mask id="path-1-inside-1" fill="white">
<path fill-rule="evenodd" clip-rule="evenodd" d="M34 26C35.6569 26 37 24.6569 37 23V3C37 1.34315 35.6569 0 34 0H0V26H34Z"/>
</mask>
<path fill-rule="evenodd" clip-rule="evenodd" d="M34 26C35.6569 26 37 24.6569 37 23V3C37 1.34315 35.6569 0 34 0H0V26H34Z" fill="#E1E1E1"/>
<path d="M0 0V-1H-1V0H0ZM0 26H-1V27H0V26ZM36 23C36 24.1046 35.1046 25 34 25V27C36.2091 27 38 25.2091 38 23H36ZM36 3V23H38V3H36ZM34 1C35.1046 1 36 1.89543 36 3H38C38 0.790861 36.2091 -1 34 -1V1ZM0 1H34V-1H0V1ZM1 26V0H-1V26H1ZM34 25H0V27H34V25Z" fill="#9D9D9D" mask="url(#path-1-inside-1)"/>
<path d="M13 13H24" stroke="#9D9D9D" stroke-width="1.5"/>
</svg>
